# xmcd CD database file
#
# Track frame offsets:
#	150
#	29415
#	57297
#	78657
#	103260
#	120277
#	138632
#	162315
#	167415
#	198430
#
# Disc length: 3365 seconds
#
# Revision: 12
# Processed by: cddbd v1.5.2PL0 Copyright (c) Steve Scherf et al.
# Submitted via: CDex 1.70beta3
#
DISCID=840d230a
DTITLE=ROSSO - BIRD
DYEAR=2002
DGENRE=J-Rock
TTITLE0=惑星にエスカレーター
TTITLE1=シャロン
TTITLE2=ミッドナイト・コンドル
TTITLE3=JERRY LOVE
TTITLE4=I ♥ PUNK
TTITLE5=カリブソ・ベイビー
TTITLE6=モーター・プール
TTITLE7=グラスホッパーはノーへル
TTITLE8=星のメロディー
TTITLE9=モンキー・ラブ・シック
EXTD=YEAR: 2002
EXTT0=
EXTT1=
EXTT2=
EXTT3=
EXTT4=
EXTT5=
EXTT6=
EXTT7=
EXTT8=
EXTT9=
PLAYORDER=
